<svg xmlns="http://www.w3.org/2000/svg" xmlns:xlink="http://www.w3.org/1999/xlink" width="714.76" height="582.294" viewBox="0 0 714.76 582.294">
  <defs>
    <linearGradient id="linear-gradient" x1="10.407" y1="73.254" x2="10.444" y2="73.254" gradientUnits="objectBoundingBox">
      <stop offset="0.176" stop-color="#fdc603"/>
      <stop offset="1" stop-color="#f39718"/>
    </linearGradient>
    <linearGradient id="linear-gradient-2" x1="16.323" y1="109.992" x2="16.384" y2="109.992" gradientUnits="objectBoundingBox">
      <stop offset="0" stop-color="#fdc603"/>
      <stop offset="1" stop-color="#f6a711"/>
    </linearGradient>
    <linearGradient id="linear-gradient-3" x1="34.863" y1="97.468" x2="34.915" y2="97.468" xlink:href="#linear-gradient"/>
    <linearGradient id="linear-gradient-4" x1="39.919" y1="248.952" x2="39.973" y2="248.952" xlink:href="#linear-gradient"/>
    <linearGradient id="linear-gradient-5" x1="68.784" y1="252.417" x2="68.93" y2="252.417" xlink:href="#linear-gradient"/>
    <linearGradient id="linear-gradient-6" x1="13.331" y1="75.782" x2="13.453" y2="75.782" xlink:href="#linear-gradient"/>
    <linearGradient id="linear-gradient-7" x1="9.027" y1="78.447" x2="9.061" y2="78.447" xlink:href="#linear-gradient"/>
    <linearGradient id="linear-gradient-8" x1="6.853" y1="172.77" x2="6.879" y2="172.77" xlink:href="#linear-gradient"/>
    <linearGradient id="linear-gradient-9" x1="8.152" y1="14.672" x2="8.166" y2="14.672" xlink:href="#linear-gradient"/>
    <linearGradient id="linear-gradient-10" x1="12.609" y1="13" x2="12.652" y2="13" xlink:href="#linear-gradient"/>
    <linearGradient id="linear-gradient-11" x1="9.427" y1="12.519" x2="9.455" y2="12.519" gradientUnits="objectBoundingBox">
      <stop offset="0" stop-color="#f39718"/>
      <stop offset="0.824" stop-color="#fdc603"/>
    </linearGradient>
    <linearGradient id="linear-gradient-12" x1="7.643" y1="22.293" x2="7.664" y2="22.293" gradientUnits="objectBoundingBox">
      <stop offset="0" stop-color="#74ccf4"/>
      <stop offset="1" stop-color="#2998be"/>
    </linearGradient>
    <linearGradient id="linear-gradient-13" x1="24.89" y1="38.853" x2="24.929" y2="38.853" xlink:href="#linear-gradient"/>
    <linearGradient id="linear-gradient-14" x1="43.802" y1="87.531" x2="43.881" y2="87.531" xlink:href="#linear-gradient"/>
    <linearGradient id="linear-gradient-15" x1="51.914" y1="89.024" x2="51.994" y2="89.024" xlink:href="#linear-gradient"/>
    <linearGradient id="linear-gradient-16" x1="-50.909" y1="420.29" x2="-50.445" y2="420.29" xlink:href="#linear-gradient"/>
    <linearGradient id="linear-gradient-17" x1="83.605" y1="943.748" x2="83.821" y2="943.748" xlink:href="#linear-gradient"/>
    <linearGradient id="linear-gradient-18" x1="83.529" y1="724.64" x2="83.755" y2="724.64" xlink:href="#linear-gradient"/>
    <linearGradient id="linear-gradient-19" x1="45.026" y1="319.969" x2="45.361" y2="319.969" xlink:href="#linear-gradient"/>
    <linearGradient id="linear-gradient-20" x1="79.45" y1="1657.356" x2="79.647" y2="1657.356" xlink:href="#linear-gradient"/>
    <linearGradient id="linear-gradient-21" x1="78.18" y1="576.211" x2="78.406" y2="576.211" xlink:href="#linear-gradient"/>
    <linearGradient id="linear-gradient-22" x1="22.599" y1="86.959" x2="22.679" y2="86.959" xlink:href="#linear-gradient-11"/>
    <linearGradient id="linear-gradient-23" x1="-234.104" y1="411.36" x2="-233.64" y2="411.36" xlink:href="#linear-gradient-11"/>
    <linearGradient id="linear-gradient-24" x1="2.436" y1="925.302" x2="2.651" y2="925.302" xlink:href="#linear-gradient-11"/>
    <linearGradient id="linear-gradient-25" x1="-1.678" y1="710.147" x2="-1.452" y2="710.147" xlink:href="#linear-gradient-11"/>
    <linearGradient id="linear-gradient-26" x1="-83.999" y1="312.977" x2="-83.664" y2="312.977" xlink:href="#linear-gradient-11"/>
    <linearGradient id="linear-gradient-27" x1="5.762" y1="1630.7" x2="5.958" y2="1630.7" xlink:href="#linear-gradient-11"/>
    <linearGradient id="linear-gradient-28" x1="-7.243" y1="564.7" x2="-7.017" y2="564.7" xlink:href="#linear-gradient-11"/>
    <linearGradient id="linear-gradient-29" x1="6.113" y1="65.413" x2="6.12" y2="65.413" xlink:href="#linear-gradient"/>
    <linearGradient id="linear-gradient-30" x1="23.265" y1="28.278" x2="23.296" y2="28.278" xlink:href="#linear-gradient"/>
    <linearGradient id="linear-gradient-31" x1="51.872" y1="41.142" x2="51.95" y2="41.142" xlink:href="#linear-gradient"/>
    <linearGradient id="linear-gradient-32" x1="14.537" y1="32.211" x2="14.576" y2="32.211" xlink:href="#linear-gradient"/>
    <linearGradient id="linear-gradient-33" x1="22.54" y1="70.737" x2="22.622" y2="70.737" xlink:href="#linear-gradient"/>
    <linearGradient id="linear-gradient-34" x1="104.419" y1="1141.25" x2="104.991" y2="1141.25" xlink:href="#linear-gradient"/>
    <linearGradient id="linear-gradient-35" x1="261.332" y1="280.393" x2="261.859" y2="280.393" xlink:href="#linear-gradient"/>
    <linearGradient id="linear-gradient-36" x1="-35.383" y1="1114.022" x2="-35.189" y2="1114.022" xlink:href="#linear-gradient"/>
    <linearGradient id="linear-gradient-37" x1="14.314" y1="59.665" x2="14.341" y2="59.665" xlink:href="#linear-gradient"/>
    <linearGradient id="linear-gradient-38" x1="41.988" y1="228.361" x2="42.105" y2="228.361" xlink:href="#linear-gradient"/>
    <linearGradient id="linear-gradient-39" x1="41.266" y1="230.355" x2="41.383" y2="230.355" xlink:href="#linear-gradient"/>
    <linearGradient id="linear-gradient-40" x1="39.207" y1="230.716" x2="39.323" y2="230.716" xlink:href="#linear-gradient"/>
    <linearGradient id="linear-gradient-41" x1="38.916" y1="232.368" x2="39.033" y2="232.368" xlink:href="#linear-gradient"/>
    <linearGradient id="linear-gradient-42" x1="36.124" y1="229.702" x2="36.241" y2="229.702" xlink:href="#linear-gradient"/>
    <linearGradient id="linear-gradient-43" x1="36.782" y1="226.441" x2="36.899" y2="226.441" xlink:href="#linear-gradient"/>
    <linearGradient id="linear-gradient-44" x1="37.601" y1="229.3" x2="37.718" y2="229.3" xlink:href="#linear-gradient"/>
    <linearGradient id="linear-gradient-45" x1="38.148" y1="227.208" x2="38.265" y2="227.208" xlink:href="#linear-gradient"/>
    <linearGradient id="linear-gradient-46" x1="10.152" y1="178.578" x2="10.169" y2="178.578" xlink:href="#linear-gradient"/>
    <linearGradient id="linear-gradient-47" x1="22.383" y1="150.434" x2="22.466" y2="150.434" xlink:href="#linear-gradient"/>
  </defs>
  <g id="Icon_02-1" data-name="Icon 02-1" transform="translate(-1405.942 -171.761)">
    <path id="Path_8106" data-name="Path 8106" d="M1840.309,317.1a2.342,2.342,0,0,0-3.287.417c-1.507,1.864,2.306,7.4,2.63,10.421s.954,7.057.954,7.057-13.283-.436-15.743,4.7c-1.543,3.218,4.59,11.581,7.74,15.236,2.933,3.4,3.941,9.631,3.941,9.631l11-1.794a91.712,91.712,0,0,0,.677-11.2c-.283-2.674-.514-14.877-2-18.953s-3.118-11.551-5.308-14.821A2.345,2.345,0,0,0,1840.309,317.1Z" fill="#efac7f"/>
    <g id="Group_2117" data-name="Group 2117">
      <path id="Path_8107" data-name="Path 8107" d="M2032.039,285.654v10.673l10.091,3.932,23.6-16.808-9.919-3.766-.735-10.562Z" fill="url(#linear-gradient)"/>
      <circle id="Ellipse_121" data-name="Ellipse 121" cx="42.15" cy="42.15" r="42.15" transform="translate(1952.918 279.035)" fill="#3b77be"/>
      <circle id="Ellipse_122" data-name="Ellipse 122" cx="33.482" cy="33.482" r="33.482" transform="translate(1961.566 287.7)" fill="#3797db"/>
      <path id="Path_8108" data-name="Path 8108" d="M1973.554,321.177a21.494,21.494,0,0,1,21.495-21.494h0a21.494,21.494,0,0,1,21.494,21.494h0a21.494,21.494,0,0,1-21.494,21.495h0a21.494,21.494,0,0,1-21.495-21.495Z" fill="#62bdf3"/>
      <path id="Path_8109" data-name="Path 8109" d="M1995.026,310.871a10.334,10.334,0,1,1-10.334,10.334A10.334,10.334,0,0,1,1995.026,310.871Z" fill="url(#linear-gradient-2)"/>
      <g id="Group_2116" data-name="Group 2116">
        <path id="Path_8110" data-name="Path 8110" d="M1995.791,320.071l58.349-39.965a.9.9,0,0,1,1.245.233v0a.894.894,0,0,1-.234,1.243l-58.9,40.337a.888.888,0,0,1-.5.156C1995.467,322.077,1995.38,320.352,1995.791,320.071Z" fill="#d1eaf2"/>
      </g>
      <path id="Path_8111" data-name="Path 8111" d="M1995.163,319.848l.33,2.706,5.718-1.906-3.307-1.079.23-3.444Z" fill="#fff"/>
    </g>
    <path id="Path_8112" data-name="Path 8112" d="M1641.805,731.85h218.311a33.637,33.637,0,0,0-33.636-33.636h-18.348a13.989,13.989,0,0,1-13.989-13.988v-62.9l-84.469,1.184v61.718a13.988,13.988,0,0,1-13.988,13.988h-20.245A33.636,33.636,0,0,0,1641.805,731.85Z" fill="#3b77be"/>
    <rect id="Rectangle_533" data-name="Rectangle 533" width="212.535" height="430.498" transform="translate(1421.193 300.289)" fill="#3b77be"/>
    <path id="Path_8113" data-name="Path 8113" d="M1432.571,484.265l-1.407,9.513,10.407,2.733-.214,8.919,9.584,4.267,1.615-3.627-7.166-3.191.226-9.41-10.006-2.626.936-6.322Z" fill="#fff"/>
    <path id="Path_8114" data-name="Path 8114" d="M1513.316,282.526a1.009,1.009,0,0,1-1.379-.363l-3.613-6.357-7.286-.63a1.008,1.008,0,0,1-.655-1.679l4.93-5.4-1.654-7.123a1.007,1.007,0,0,1,1.393-1.142l6.661,3.025,6.263-3.781a1.008,1.008,0,0,1,1.512.973l-.814,7.268,5.525,4.789a1.007,1.007,0,0,1-.455,1.744l-7.163,1.472-2.848,6.735A1.014,1.014,0,0,1,1513.316,282.526Z" fill="url(#linear-gradient-3)"/>
    <path id="Path_8115" data-name="Path 8115" d="M1695.024,218.823a.63.63,0,0,1-.86-.234l-2.25-3.96-4.537-.391a.63.63,0,0,1-.409-1.044l3.07-3.364-1.029-4.436a.63.63,0,0,1,.867-.712l4.147,1.88,3.907-2.35a.63.63,0,0,1,.944.6l-.5,4.525,3.44,2.983a.631.631,0,0,1-.283,1.087l-4.462.916-1.774,4.195A.634.634,0,0,1,1695.024,218.823Z" fill="#7772d6"/>
    <path id="Path_8116" data-name="Path 8116" d="M1409.332,518.079l4.285,5.923,7.118-4.033,4.613,4.972,7.484-2.76-1.045-2.832-5.6,2.063-4.868-5.245-6.843,3.877-2.844-3.939Z" fill="url(#linear-gradient-4)"/>
    <g id="Group_2118" data-name="Group 2118">
      <path id="Path_8117" data-name="Path 8117" d="M1508.5,231.78a1.538,1.538,0,0,1-2.076-.651L1493.231,205.9a1.54,1.54,0,0,1,.651-2.077l37.5-19.605h0a1.54,1.54,0,0,1,2.077.652l13.189,25.225h0a1.539,1.539,0,0,1-.652,2.076l-37.5,19.606Z" fill="#3797db"/>
      <rect id="Rectangle_534" data-name="Rectangle 534" width="15.957" height="7.409" rx="2.907" transform="translate(1513.247 189.536) rotate(-27.603)" fill="#3797db"/>
      <path id="Path_8118" data-name="Path 8118" d="M1492.734,210.168a1.376,1.376,0,0,1-.071-.122,1.537,1.537,0,0,1,.65-2.075l41.926-21.928c.045-.024.092-.045.139-.065a1.539,1.539,0,0,1,2,.85l9.452,23.338a1.539,1.539,0,0,1-.713,1.942l-37.743,19.735a1.54,1.54,0,0,1-2.005-.531Z" fill="#62bdf3"/>
    </g>
    <g id="Group_2119" data-name="Group 2119">
      <path id="Path_8119" data-name="Path 8119" d="M1522.277,434.333l4.623,1.26,1.08-6.079,2.331.415-1.533,8.631-7.123-1.944Z" fill="url(#linear-gradient-5)"/>
    </g>
    <g id="Group_2121" data-name="Group 2121">
      <path id="Path_8120" data-name="Path 8120" d="M1470.634,233.555l-2.194,5.132a183.448,183.448,0,0,1-26.652,39.143h0c1.7,10.974,13.834,9.9,13.834,9.9l.711-1.5a123.207,123.207,0,0,1,26.377-36.547l4.635-4.421Z" fill="#3797db"/>
      <path id="Path_8121" data-name="Path 8121" d="M1480.074,237.82c4.613,3.217,7.891,6.559,7.3,7.41s-4.841-1.1-9.452-4.316-7.868-6.518-7.272-7.371S1475.462,234.6,1480.074,237.82Z" fill="#3b77be"/>
      <path id="Path_8122" data-name="Path 8122" d="M1477.917,240.913a49.266,49.266,0,0,0,4.6,2.864l1.177-1.6c-3.809-.8-13.05-8.62-13.05-8.62l-.015.017C1470.126,234.471,1473.359,237.733,1477.917,240.913Z" fill="#3b77be"/>
      <g id="Group_2120" data-name="Group 2120">
        <path id="Path_8123" data-name="Path 8123" d="M1455.871,259.87c.158.4.4.9.59,1.281,1.239,2.395,3.995,5.541,10.124,7.353q.922-1.326,1.877-2.626c-9.676-2.43-10.2-8.248-10.18-9.6Q1457.1,258.09,1455.871,259.87Z" fill="#9ed16f"/>
        <path id="Path_8124" data-name="Path 8124" d="M1467,266.744l13.485,3.438-2.016-3.663,3.376-2.865-14.249.5Z" fill="#9ed16f"/>
        <path id="Path_8125" data-name="Path 8125" d="M1464.048,268.461l2.379,9.276,1.371-2.8,3.561,1.356-5.063-8.822Z" fill="#9ed16f"/>
        <path id="Path_8126" data-name="Path 8126" d="M1460.16,264.872c0-.046.007-.091.012-.137a4.682,4.682,0,1,1,4.19,5.127A4.614,4.614,0,0,1,1460.16,264.872Z" fill="#9ed16f"/>
      </g>
    </g>
    <path id="Path_8127" data-name="Path 8127" d="M2034.963,223.1l1.2,1.732-2.467,1.713,1.537,3.873-3.075,3.251,2.415,5.022-4.521,2.555,2.161,5.052-4.02,2.974,1,4.046-2.048.5-1.336-5.412,3.811-2.818-2.248-5.256,4.451-2.511-2.189-4.552,3.151-3.329-1.657-4.178Z" fill="url(#linear-gradient-6)"/>
    <path id="Path_8128" data-name="Path 8128" d="M2095.613,337.283l-1.722,1.218-1.734-2.452-3.859,1.569-3.277-3.047-5,2.458-2.592-4.5-5.035,2.2-3.008-4-4.033,1.034-.523-2.045,5.4-1.386,2.851,3.781,5.237-2.292,2.55,4.426,4.537-2.227,3.356,3.121,4.159-1.692Z" fill="#3797db"/>
    <g id="Group_2122" data-name="Group 2122">
      <path id="Path_8129" data-name="Path 8129" d="M2059.9,400.71a4.619,4.619,0,0,1-3.919-5.226l2.122-14.871a4.621,4.621,0,0,1,5.227-3.921l25.826,3.685h0a4.621,4.621,0,0,1,3.922,5.226l-2.123,14.871a4.62,4.62,0,0,1-5.226,3.921l-25.826-3.685Z" fill="url(#linear-gradient-7)"/>
      <path id="Path_8130" data-name="Path 8130" d="M2076.676,396.994a1.011,1.011,0,0,0,1.624-.653l1.567-10.978a1.011,1.011,0,0,0-1.379-1.08l-10.29,4.133a1.01,1.01,0,0,0-.246,1.733Z" fill="#fff"/>
    </g>
    <path id="Path_8131" data-name="Path 8131" d="M2070.528,302.329l1.873-2.8,3.98,2.664,4.856-4.537,6.618,2.673,6.05-6.51,6.427,5.227,6.244-6.15,6.758,4.24,5.425-3.839,1.943,2.746-7.256,5.134-6.4-4.018-6.5,6.4-6.32-5.142-5.483,5.9-6.778-2.737-5.239,4.892Z" fill="url(#linear-gradient-8)"/>
    <rect id="Rectangle_535" data-name="Rectangle 535" width="410.979" height="255.59" rx="35.139" transform="translate(1551.707 370.96)" fill="#3797db"/>
    <path id="Rectangle_536" data-name="Rectangle 536" d="M1926.413,381.419a25.813,25.813,0,0,1,25.813,25.813V590.28a25.81,25.81,0,0,1-25.81,25.809H1587.979a25.811,25.811,0,0,1-25.812-25.812V407.231a25.812,25.812,0,0,1,25.811-25.812Z" fill="#d1eaf2"/>
    <rect id="Rectangle_537" data-name="Rectangle 537" width="244.443" height="202.115" transform="translate(1585.172 398.772)" fill="#62bdf3"/>
    <path id="Path_8132" data-name="Path 8132" d="M1898.866,725.652h92.742a11.785,11.785,0,0,0,11.563-11.993h0a11.784,11.784,0,0,0-11.563-11.993h-92.734A23.792,23.792,0,0,1,1898.866,725.652Z" fill="#fae0b2"/>
    <g id="Group_2123" data-name="Group 2123">
      <path id="Path_8133" data-name="Path 8133" d="M2078.438,730.8h-672.5v3.567h672.5a1.784,1.784,0,0,0,1.783-1.784h0A1.783,1.783,0,0,0,2078.438,730.8Z" fill="#62bdf3"/>
    </g>
    <g id="Group_2125" data-name="Group 2125">
      <g id="Group_2124" data-name="Group 2124">
        <path id="Path_8134" data-name="Path 8134" d="M1794.52,623.217c4.048-39.394-2.9-105.2-2.9-105.2l-10.646-27.574-40.246,11.525,12.687,78.943,8.965,39.936-1.26,5.463h32.892A31.092,31.092,0,0,0,1794.52,623.217Z" fill="#2d185d"/>
        <path id="Path_8135" data-name="Path 8135" d="M1746.262,626.307,1777.095,517.2l-1.269-24.37-46.2-.947-9.135,30.708-3.934,98.206-1.951,5.518Z" fill="#45258f"/>
        <path id="Path_8136" data-name="Path 8136" d="M1781.546,430.7s39.554,14.627,50.348,7.86c8.479-5.315,17.922-81.182,17.922-81.182l-16.629-1.154-15.116,52.257-46.841-27.063Z" fill="#3b77be"/>
        <path id="Path_8137" data-name="Path 8137" d="M1754.656,378.789s15.87,6.33,18.309,10.5,11.386,82.543,11.386,90.494,6.09,38.232,6.09,38.232c-19.291,7.612-70.205,4.4-70.205,4.4s2.876-19.8,3.892-33.157-25.205-88.469-25.205-88.469,12.6-13.937,16.667-16.924c3.612-2.653,19.08-4.608,19.08-4.608Z" fill="url(#linear-gradient-9)"/>
        <path id="Path_8138" data-name="Path 8138" d="M1784.3,585.187c-1.59-.575-5.662-129.933-10.138-165.406-1.544-12.233-4.4-23.709-11.394-33.6-1.558-2.211-8.111-7.387-8.111-7.387s5.535.426,10.68,1.056c3.068.375,5.861,1.251,6.988,2.3,9.384,11.276,19.387,92.413,21.568,119.108.223,2.689,11.01,78.47,10.683,80.068C1803.855,584.868,1786.078,585.828,1784.3,585.187Z" fill="#3b77be"/>
        <path id="Path_8139" data-name="Path 8139" d="M1759.8,320.39c2.38,8.529,10.76,32.548-1.653,37.389-.025.01-9.686,3.778-13.87,3.15s-7.736,3.605-11.115,4.7c-2.406.772-3.123-1.379-5.167-1.874-2.434-.589-4.475.513-7.057-.874a21.456,21.456,0,0,1-5.524-4.694c-5.548-6.092-9.035-12.262-8.633-20.7.332-6.948,3.138-14.521,9.224-18.416,1.709-1.093,3.56-3.09,5.477-3.739a20.488,20.488,0,0,1,3.739-.1c3.94-11.037,13.259-4.736,13.259-4.736C1746.161,307.6,1757.562,312.375,1759.8,320.39Z" fill="#5e2e0d"/>
        <path id="Path_8140" data-name="Path 8140" d="M1730.071,351.581l4.6,27.672s14.527,14.543,18.056,10.619c2.058-2.28,1.932-11.08,1.932-11.08l-1.737-4.915-3.225-8.8Z" fill="#efac7f"/>
        <path id="Path_8141" data-name="Path 8141" d="M1730.07,351.583l19.626,13.5,3.255,8.88c-6.348-.932-15.864-4.839-21.389-13.409Z" fill="#d19369"/>
        <path id="Path_8142" data-name="Path 8142" d="M1725.6,348.821c4.256,16.711,20.834,21.1,26.219,19.912s8.976-14.086,6.141-25.9a104.95,104.95,0,0,0-3.977-12.784,13.9,13.9,0,0,0-20.145-6.891C1726.081,327.906,1722.977,338.494,1725.6,348.821Z" fill="#efac7f"/>
        <path id="Path_8143" data-name="Path 8143" d="M1724.953,345.387c-2.138.474-3.4,2.971-2.826,5.593s2.776,4.353,4.915,3.881,3.4-2.975,2.826-5.592S1727.092,344.913,1724.953,345.387Z" fill="#efac7f"/>
        <path id="Path_8144" data-name="Path 8144" d="M1753.045,587.812c-.584,4.092-51.133,4.3-60.394-.87-1.433-1.3,15.012-74.975,17.022-105.745q.189-2.859.292-5.827c.719-20.446-4.456-60.915-4.456-60.915s-2.861-26.79.794-29.193c5.751-3.782,28.368-6.008,28.368-6.008S1757.992,553.2,1753.045,587.812Z" fill="#3b77be"/>
        <path id="Path_8145" data-name="Path 8145" d="M1740.459,466.763,1709.678,481.1q.186-2.811.287-5.73.03-.809.046-1.654Z" fill="#336da8"/>
        <path id="Path_8146" data-name="Path 8146" d="M1774.307,446.465c-.98.649-2.052,1.348-3.141,2.051-4.228,2.736-8.628,4.358-8.512,4.862.15.655,8-2.773,8-2.773s4.722-.7.922,1.816a39.951,39.951,0,0,1-8.505,4.31c-1.194.334-5.088,2.736-9.4,3.277s-11.182,1.182-11.182,1.182c-4.949,2.313-53.712,21.846-56.4,22.225l-5.8-17.573c2.333-.784,45.905-11.594,45.905-11.594s14.513-5.3,15.218-6.211c.6-.772-.593-1.241,3.893-7.371a12.74,12.74,0,0,1,4.179-3.1s4.874-1.817,5.47-1.134-.683,2.028-1.513,2.56a18.787,18.787,0,0,0-2.559,1.536,5.347,5.347,0,0,0-.333,3.6c.291.778,10.625-4.285,10.625-4.285s2.9-1.586,3.824-2.183c.787-.509,3.032-2.212,3.032-2.212s3.323-2.258,3.944-1.25c.371.594-2.037,3.368-4.788,5.683-2.963,2.495-6.294,4.53-6.137,4.865.37.78,6.1-1.866,6.1-1.866a21.341,21.341,0,0,1,3.707-2.3c1.312-1.365,4.037-2.969,4.7-1.689a27.668,27.668,0,0,1-2.979,3.427s-2.359,1.682-3.435,2.551c-1.9,1.531-5.224,2.908-6.586,3.847-1.133.781-.538.877-.549,1.027a34.565,34.565,0,0,0,3.907-1.784,26.415,26.415,0,0,0,3.781-1.756,31.859,31.859,0,0,1,3.916-2.1C1776.6,442.749,1776.879,444.764,1774.307,446.465Z" fill="#efac7f"/>
        <path id="Path_8147" data-name="Path 8147" d="M1710.243,436.82l-10.99,18.955c1.238.6,36.264-7.143,36.264-7.143l4.945,18.132s-52.871,19.22-62.76,16.748-12.12-10.865-7.724-25.974c4.351-14.963,18.285-54.053,24.6-63.118s13.644-10.073,13.644-10.073C1718.848,406.142,1710.243,436.82,1710.243,436.82Z" fill="#3b77be"/>
      </g>
      <path id="Path_8148" data-name="Path 8148" d="M1757.269,354.993c2.027,3.766.482,10.525-1.546,12.118s-9.463,3.381-12.938.482a9.686,9.686,0,0,1-3.766-9.27c.578-2.606,7.676-4.924,7.676-4.924S1755.241,351.228,1757.269,354.993Z" fill="#5e2e0d"/>
      <path id="Path_8149" data-name="Path 8149" d="M1749.344,356.488a15.7,15.7,0,0,1,4.731.435,12.939,12.939,0,0,1-.869,4.007,3.6,3.6,0,0,1-.253.421,4.632,4.632,0,0,1-4.337,1.969,8.969,8.969,0,0,1-3.234-1.037c-.965-.53-1.008-3.428-1.008-3.428A19.817,19.817,0,0,1,1749.344,356.488Z" fill="#efac7f"/>
    </g>
    <path id="Path_8150" data-name="Path 8150" d="M1672.119,274.505l1.832-.767,1.09,2.608,3.867-.651,2.387,3.472,5.1-1.233,1.459,4.662,5.077-.993,1.945,4.285,3.921-.126.062,1.985-5.244.164-1.844-4.063-5.281,1.033-1.436-4.59-4.621,1.118-2.444-3.555-4.171.7Z" fill="#3797db"/>
    <g id="Group_2128" data-name="Group 2128">
      <path id="Path_8151" data-name="Path 8151" d="M2021.328,490.826c-1.148,4.313-1.81,7.33-1.81,7.33l4.063,9.609a75.79,75.79,0,0,0,7.516-10.5,8.1,8.1,0,0,0,.785-2C2028.989,492.524,2025.252,491.9,2021.328,490.826Z" fill="#efac7f"/>
      <path id="Path_8152" data-name="Path 8152" d="M2018.1,463.883c5.535-8.446,5.477-9.538,9.22-10.345,7.433-1.6,14.095,6.5,14.052,13.233-.094,14.583-8.917,30.084-9.39,30.21-.732.2-23.394-10.049-23.394-10.049S2012.563,472.33,2018.1,463.883Z" fill="#3b77be"/>
      <path id="Path_8153" data-name="Path 8153" d="M1979.647,670.727s-.477,4.3-.667,6.427c-.122,1.386-2.069,2.611-2.441,2.773-4.107,1.8,14.218,9.286,14.218,5.235,0-1.079-.777-4.009-.975-5.2,0-.019-.541-9.362-.541-9.362Z" fill="#efac7f"/>
      <path id="Path_8154" data-name="Path 8154" d="M1961.844,687.534c6.487,2.055,29.559.068,29.559.068s.067-6.982-1.649-7.757c-1.559-.7-4.463,1.9-6.666,1.594a66.646,66.646,0,0,1-6.506-1.549C1967.791,682.776,1959.277,686.718,1961.844,687.534Z" fill="#45258f"/>
      <path id="Path_8155" data-name="Path 8155" d="M2017.139,670.734s.1,3.38-.088,5.505c-.126,1.379-2.646,3.526-3.024,3.688-4.106,1.8,14.218,9.286,14.218,5.235,0-1.079-.778-4.009-.976-5.2,0-.019-.54-9.362-.54-9.362Z" fill="#efac7f"/>
      <path id="Path_8156" data-name="Path 8156" d="M1999.331,687.534c6.518,2.385,29.695.068,29.695.068s-.069-6.982-1.785-7.757c-1.558-.7-4.463,1.9-6.666,1.594a66.654,66.654,0,0,1-6.506-1.549C2005.277,682.776,1996.8,686.612,1999.331,687.534Z" fill="#45258f"/>
      <g id="Group_2126" data-name="Group 2126">
        <path id="Path_8157" data-name="Path 8157" d="M2013.8,510.807l-.437-.623c-.744-1.059-18.148-25.863-18.9-27.272-.077-.145-.258-.477-2.005-8.29-1.277-5.706-1.613-7.226-1.674-7.705h-.017c-.332-2.21-.65-4.344-.942-6.29-.679-4.547-1.218-8.16-1.392-9.168-.237-.493-1.792-3.712-2.919-5.736a16.011,16.011,0,0,1-1.539-4.692,7.459,7.459,0,0,0-.2-.882c-.66-1.648-1.309-7.949.487-7.949.429,0,.944,4.435,1.376,5.2-.032-.586-.61-5.618-.621-6.2-.019-.989.055-2.239.975-2.239,1.11,0,1.676,4.644,1.822,5.734.022-.64-.02-3.887-.027-4.309,0,0-.06-3.07.65-3.174,1.415-.208,1.554,1.992,1.314,3.387a19.074,19.074,0,0,1,.405,2.647c.117.638.275,1.333.431,1.909.5-5.006.47-7.965,1.662-8.057h.063c1.333,0,.948,2.786,1.008,3.165l.317,5.041a42.265,42.265,0,0,0,1.311,5.378c.874-1.612-.026-4.193,1.864-4.193,1.2,0,1.025,2.585.845,3.649a56.828,56.828,0,0,1-1.675,7.123c-.1.276-.178.484-.218.6.045.676,1.355,4.642,2.409,7.839.951,2.876,1.932,5.849,2.4,7.553l.016.051c1.473,4.876,3.165,9.777,3.978,12.133.224.651.37,1.073.438,1.281l16.14,23.734Z" fill="#efac7f"/>
        <path id="Path_8158" data-name="Path 8158" d="M1992.33,441.995a2.572,2.572,0,0,1,2.421-.434c-2.333.011-3.642,3.528-3.642,3.528A4.992,4.992,0,0,1,1992.33,441.995Z" fill="#d19369"/>
      </g>
      <g id="Group_2127" data-name="Group 2127">
        <path id="Path_8159" data-name="Path 8159" d="M2014.787,439.634c.633,3.86-1.43,11.223-1.43,11.223s-2.656,5.315,1.217,6.5c4.615,1.413,12.531-5.267,12.531-5.267l-2.078-13.792S2014.153,435.774,2014.787,439.634Z" fill="#efac7f"/>
        <path id="Path_8160" data-name="Path 8160" d="M2025.427,440.936l-.4-2.647s-2.813-.518-5.963-.8c-2.411-.061-4.569.361-4.277,2.142a19.226,19.226,0,0,1-.211,5.481,31.149,31.149,0,0,0,8.96-2.647A6.577,6.577,0,0,0,2025.427,440.936Z" fill="#d19369"/>
        <path id="Path_8161" data-name="Path 8161" d="M2023.626,415.256c-7.523,2-13.562,17.716-11.906,22.306,1.5,4.15,9.472,5.531,14.821,2.881s8.8-18.059,8.477-18.059C2035.018,422.384,2031.148,413.26,2023.626,415.256Z" fill="#efac7f"/>
        <path id="Path_8162" data-name="Path 8162" d="M2022.083,415.889c2.957,1.18,5.956,5.951,5.956,5.951.245,2.642-.885,5.767-.7,7.377.233,2.089,2.9,4.646,1.089,6.41a16.241,16.241,0,0,0-3.012,5.293l.6,3.907s.846-3.634,6.249-5.293,10.49-7.177,9.057-14.334c-1.164-5.821-3.59-7.981-5.595-8.98a17.465,17.465,0,0,0-6.893-7.994C2023.347,404.907,2017.037,413.891,2022.083,415.889Z" fill="#282828"/>
        <path id="Path_8163" data-name="Path 8163" d="M2029.725,429.412c1.052.4,1.338,2.166.638,3.947s-2.118,2.9-3.169,2.5-1.337-2.168-.638-3.947S2028.674,429.011,2029.725,429.412Z" fill="#efac7f"/>
      </g>
      <path id="Path_8164" data-name="Path 8164" d="M2005.625,500.079l-1.772-3.734s-22.275-10.208-23.54-10.208-4.808,9.361-4.808,9.361l31.128,5.328Z" fill="#efac7f"/>
      <path id="Path_8165" data-name="Path 8165" d="M2014.734,521.741l-16.2,37.844s4.81,49.545,4.556,47.8,13.335,66.148,13.335,66.148l11.459-.261-4.829-67.927s.1-42.451,1.365-54.4-1.84-27.712-1.84-27.712Z" fill="url(#linear-gradient-10)"/>
      <path id="Path_8166" data-name="Path 8166" d="M1986.659,517.35l-5.86,19.445-6.036,76.906,2.882,61.191,13.324.393s6.378-55.037,6.632-60.015,19.434-66.049,21.963-72.275.5-20.416.5-20.416Z" fill="url(#linear-gradient-11)"/>
      <path id="Path_8167" data-name="Path 8167" d="M2022.087,447.633c-.2-.131-8.128,1.081-8.128,1.081l-.6,2.142s4.333,2.964,7.4,3.232,6.35-2,6.35-2S2022.288,447.764,2022.087,447.633Z" fill="#efac7f"/>
      <path id="Path_8168" data-name="Path 8168" d="M1980.447,476.587c-12.969,9.961-10.77,16.769-5.454,18.761s17.091-9.674,17.091-9.674S1992.054,467.673,1980.447,476.587Z" fill="#efac7f"/>
      <path id="Path_8169" data-name="Path 8169" d="M1980.053,536.674c12.4,10.955,45.56,3.735,45.56,3.735s-.693-15.717-.007-27.615c.432-3.077.756-5.709,1.134-8.378,1.871-7.958,5.636-13.955,8.677-24.88,3.851-13.838,3.14-21.129.46-23.764s-8.772-3.687-8.772-3.687-6.834-.918-13.715-1.3c-6.514-.363-13.352-.3-13.845,2.483-1.012,5.723-13.691,36.816-15.44,46.807C1982.313,510.313,1980.056,536.676,1980.053,536.674Z" fill="url(#linear-gradient-12)"/>
      <path id="Path_8170" data-name="Path 8170" d="M1990.974,458.807c7.594-6.722,9.3-7.758,13.128-7.774,5.528-.024,10.366,7.07,8.058,13.41-4.172,11.467-22.251,25.428-22.74,25.428-.758,0-13.77-11.274-13.77-11.274S1983.38,465.529,1990.974,458.807Z" fill="#3b77be"/>
    </g>
    <g id="Group_2132" data-name="Group 2132">
      <g id="Group_2131" data-name="Group 2131">
        <g id="Group_2130" data-name="Group 2130">
          <path id="Path_8171" data-name="Path 8171" d="M1581.133,252.144c15.4,6.335,20.353-7.509,19.968-7.142a40.679,40.679,0,0,1,4.09-2.052c6.17-3.024,5.986-13.7,5.847-20.775,8.853-5.389,11.073-15.716,5-22.024,1.869-7.014,2.266-11.428-4-14.983-4.743-8.27-18.034-5.464-24.484,1.023a18.317,18.317,0,0,0-5.113,12.91c-7.585,3.141-11.555,11.506-9.83,19.95C1562.372,227.481,1565.427,245.679,1581.133,252.144Z" fill="#5e2e0d"/>
          <path id="Path_8172" data-name="Path 8172" d="M1639.378,279.35c-.2.413-3.186-3.163-5.593-3.541-1.059-.158-3.228.017-4.016-.032a61.063,61.063,0,0,1-6.608-2.161s-25.758-8.5-27.231-10.7c-3.5-5.225-.6-23.157,2.094-33.8,4.726-.365,5.624-.064,10.223,1.338-4.2,10.5-3.225,26.074-3.225,26.074l19.816,13.172s8.576,1.347,9.9,1.512c1.366.166,5.216,4.713,5.413,5.585.348,1.568-5.03-4-5.545-3.267-.126.18,2.049,1.261,3.285,2.481A4.7,4.7,0,0,1,1639.378,279.35Z" fill="#d19369"/>
          <path id="Path_8173" data-name="Path 8173" d="M1612.038,245.393c-5.526,6.5-7,31.643-7,31.643l-22.3-.1c-.7-11.76-3.172-48.989,5.759-56.677,2.666-1.814,6.791-1.115,7.51-1.657a1.534,1.534,0,0,0,.362-.638c1.915-.092,3.584-.126,3.584-.126s4.987,1.742,6.917,5.186a69.455,69.455,0,0,1,3.781,6.176C1613.414,234.31,1615.892,240.87,1612.038,245.393Z" fill="url(#linear-gradient-13)"/>
          <path id="Path_8174" data-name="Path 8174" d="M1613.7,366.751c-1.812.69-2.694-21.155-2.694-21.155s1.494,1.036,5.305-1.2c.856-.5,20.532-39.338,24.237-44.158.925-1.2-1.595-3.032-5.88-4.5,6.585-6.2-2.622-13.749,6.143-14.925,1.634.281,15.409,4.226,15.979,8.879,1.312,10.654-30.475,54.427-34.152,59.261-2.531,3.329-5.63,10.8-5.869,11.244C1614.071,365.169,1615.511,366.062,1613.7,366.751Z" fill="#d19369"/>
          <path id="Path_8175" data-name="Path 8175" d="M1616.328,344.4c-1.022,1.083-1.18,10.68.478,15.777-.089,3.341-.424,9.218-1.157,10-.356.382-1.746.413-2.572-2.435l-3.677-22.008C1609.4,345.247,1613.828,344.443,1616.328,344.4Z" fill="#45258f"/>
          <path id="Path_8176" data-name="Path 8176" d="M1633.9,304.183,1652.2,290.9a124.316,124.316,0,0,0-16.411-9.931c-8.59,3.7-8.32,2.661-13.253,10.838C1628.119,295.325,1634.494,302.7,1633.9,304.183Z" fill="#efac7f"/>
          <path id="Path_8177" data-name="Path 8177" d="M1607.011,203.931s-1.025,13.178-1.26,15.961,7.138,10.224,1.491,8.534-12.434-7.255-11.389-9.861,2.539-13.319,2.539-13.319Z" fill="#efac7f"/>
          <path id="Path_8178" data-name="Path 8178" d="M1597.936,208.284c.24-1.779.458-3.039.458-3.039l8.617-1.315s-.121,1.6-.286,3.78C1604.571,209.677,1601.429,210.319,1597.936,208.284Z" fill="#d19369"/>
          <path id="Path_8179" data-name="Path 8179" d="M1611.341,198.814c-.088,6.088-5.46,12.332-12.369,7.918s-5.468-13.867-3.371-17.079a9.784,9.784,0,0,1,5.494-3.976C1610.13,184.6,1611.429,192.726,1611.341,198.814Z" fill="#efac7f"/>
          <path id="Path_8180" data-name="Path 8180" d="M1612.445,193.627c-.847-.344-2.021.567-2.611,2.037s-.369,2.94.478,3.284,2.021-.567,2.611-2.037S1613.292,193.971,1612.445,193.627Z" fill="#efac7f"/>
          <path id="Path_8181" data-name="Path 8181" d="M1592.653,195.869c-1.066.34-1.524,1.9-1.023,3.481s1.772,2.59,2.837,2.251,1.527-1.9,1.023-3.481S1593.719,195.529,1592.653,195.869Z" fill="#efac7f"/>
          <path id="Path_8182" data-name="Path 8182" d="M1641.881,280.435c-5.7,6.083-6.974,16.092-8.085,24.546-8.061-.061-33.607.312-38.469.611-8.163.5-17-6.809-16.733-17.186.154-5.934,4.111-15.386,4.111-15.386l22.392,3.01s12.622,1.289,16.437,1.639C1626.711,278.143,1632.757,279.187,1641.881,280.435Z" fill="#45258f"/>
          <path id="Path_8183" data-name="Path 8183" d="M1616.476,359.381s7.407,21.22,9.059,20-.079-1.713,1.251-7.524c.126-.515,1.145-8.989,2.772-13.091,2.361-5.958,28.184-62.8,22.65-67.858l-15.973,8.716a11.855,11.855,0,0,0-5.923,7.972c-2.964,14.1-7.878,47.712-8.491,48.342C1618.581,359.291,1616.476,359.381,1616.476,359.381Z" fill="#efac7f"/>
          <path id="Path_8184" data-name="Path 8184" d="M1618.754,277.6l27.131.064a1.647,1.647,0,0,1,1.736,1.537l.494-.329a2.556,2.556,0,0,1-2.238,1.857l-27.131-.064a1.645,1.645,0,0,1-1.736-1.537h0A1.646,1.646,0,0,1,1618.754,277.6Z" fill="#3797db"/>
          <g id="Group_2129" data-name="Group 2129">
            <path id="Path_8185" data-name="Path 8185" d="M1648.139,278.787l10.355-35.829c.269-.929-.652-1.825-2.056-2a2.734,2.734,0,0,0-3.025,1.36l-10.355,35.83c-.269.928.651,1.824,2.057,2a3.8,3.8,0,0,0,.488.031A2.544,2.544,0,0,0,1648.139,278.787Z" fill="#3797db"/>
          </g>
          <path id="Path_8186" data-name="Path 8186" d="M1640.062,278.042c-.065.451-4.01-2.029-6.414-1.639-1.057.172-3.064,1.017-3.829,1.214a61.157,61.157,0,0,1-6.957-.009s-27.124-.1-29.206-1.734c-4.956-3.883-7.749-21.83-8.485-32.788a31.324,31.324,0,0,1,12.547-2.7c-.746,11.281,3.461,25,3.461,25l22.064,7.975s8.572-1.372,9.883-1.624c1.351-.26,6.482,3.642,6.939,4.411.82,1.38-6.08-3.019-6.344-2.168-.066.207,2.339.565,3.891,1.341A4.7,4.7,0,0,1,1640.062,278.042Z" fill="#efac7f"/>
          <path id="Path_8187" data-name="Path 8187" d="M1599.143,245.253c-4.811.091-10.765-.869-15.145.944a105.24,105.24,0,0,1,.6-18.588c.3-2.68,1.234-5.453,3.6-6.965a7.443,7.443,0,0,1,6.795-.686c3.535,1.5,3.96,4.992,4.267,8.46C1599.654,232.936,1600.216,239.883,1599.143,245.253Z" fill="url(#linear-gradient-14)"/>
        </g>
        <path id="Path_8188" data-name="Path 8188" d="M1633.595,272.226h0a.813.813,0,0,0,.545,1.421l1.941-.021a.8.8,0,0,1,.328.064c4.091,1.755,4.3,1.026,1.638-.653a25.067,25.067,0,0,0-3.711-.989A.812.812,0,0,0,1633.595,272.226Z" fill="#f7a491"/>
        <path id="Path_8189" data-name="Path 8189" d="M1621.782,355.972a14.078,14.078,0,0,0-5.264,2.748,1.73,1.73,0,0,0-.437,2.016l7.655,18.721s6.616,1.1,7.443,0-2.6-1.9-3.492-4.043a12.437,12.437,0,0,1-.735-4.8C1621.37,367.718,1621.782,355.972,1621.782,355.972Z" fill="#45258f"/>
      </g>
    </g>
    <path id="Rectangle_538" data-name="Rectangle 538" d="M1603.167,315.684a16.36,16.36,0,0,1,16.357,16.362h0a16.358,16.358,0,0,1-16.358,16.358H1448.8a16.36,16.36,0,0,1-16.359-16.36h0a16.361,16.361,0,0,1,16.36-16.36h154.362Z" fill="#d1eaf2"/>
    <path id="Path_8190" data-name="Path 8190" d="M1463.026,361.408a4.383,4.383,0,1,1,4.383,4.383,4.383,4.383,0,0,1-4.383-4.383Z" fill="#fbf8f9"/>
    <path id="Path_8191" data-name="Path 8191" d="M1449.578,361.408a4.383,4.383,0,1,1,4.383,4.383,4.383,4.383,0,0,1-4.383-4.383Z" fill="#fbf8f9"/>
    <path id="Path_8192" data-name="Path 8192" d="M1436.58,361.408a4.383,4.383,0,1,1,4.383,4.383,4.383,4.383,0,0,1-4.383-4.383Z" fill="#fbf8f9"/>
    <path id="Path_8193" data-name="Path 8193" d="M1442.425,332.044a13.448,13.448,0,1,1,13.448,13.449,13.448,13.448,0,0,1-13.448-13.449Z" fill="#fbf8f9"/>
    <rect id="Rectangle_539" data-name="Rectangle 539" width="96.305" height="10.46" transform="translate(1708.282 616.089)" fill="#3797db"/>
    <g id="Group_2140" data-name="Group 2140">
      <path id="Path_8194" data-name="Path 8194" d="M1477.766,481.728a7.954,7.954,0,0,1-.691,11.228c-1.809,1.594-1.717,3.24-2.313,7.588a2.306,2.306,0,0,1-2.415,1.99l-2.66-.15a2.306,2.306,0,0,1-2.176-2.25l-.1-4.363a5.3,5.3,0,0,0-1.342-3.438,7.9,7.9,0,1,1,11.7-10.605Z" fill="url(#linear-gradient-15)"/>
      <g id="Group_2133" data-name="Group 2133">
        <path id="Path_8195" data-name="Path 8195" d="M1469,497.283c.374-3.755.616-7.754.65-8.9-3.934-.651-1.546-4.413-.126-2.35a3.466,3.466,0,0,1,.5,2.025,10.3,10.3,0,0,0,3.94-.252,4.868,4.868,0,0,1,.584-2.142c.574-.787,1.732-.779,1.992.171a1.387,1.387,0,0,1-.161,1.081,3.535,3.535,0,0,1-2.077,1.186c-.445,2.953-.814,5.946-1.1,8.91l-.378-.035c.284-2.918.645-5.861,1.08-8.768a10.627,10.627,0,0,1-3.884.227c-.047,1.46-.3,5.351-.65,8.88Zm.211-11.033c-.764-1.111-1.658.11-1.217.863a2.224,2.224,0,0,0,1.655.89,3.066,3.066,0,0,0-.437-1.753Zm6.66-.713a1.527,1.527,0,0,0-1.017.354,4.22,4.22,0,0,0-.488,1.8,2.99,2.99,0,0,0,1.695-.974.858.858,0,0,0-.189-1.181Z" fill="#fff"/>
      </g>
      <path id="Path_8196" data-name="Path 8196" d="M1475.375,496.112c-.221,1.1-.349,2.5-.614,4.431a2.308,2.308,0,0,1-2.416,1.99l-2.659-.15a2.306,2.306,0,0,1-2.176-2.25l-.1-4.363a.5.5,0,0,1-.008-.108Z" fill="#d1eaf2"/>
      <g id="Group_2134" data-name="Group 2134">
        <path id="Path_8197" data-name="Path 8197" d="M1468.941,475.368a.757.757,0,0,0,.517-.938l-1.2-4.147a.757.757,0,1,0-1.454.421l1.2,4.147A.757.757,0,0,0,1468.941,475.368Z" fill="url(#linear-gradient-16)"/>
      </g>
      <g id="Group_2135" data-name="Group 2135">
        <path id="Path_8198" data-name="Path 8198" d="M1461.588,482.806h0a.757.757,0,0,0,.457-1.443l-4.327-1.371a.757.757,0,1,0-.458,1.443l4.328,1.37Z" fill="url(#linear-gradient-17)"/>
      </g>
      <g id="Group_2136" data-name="Group 2136">
        <path id="Path_8199" data-name="Path 8199" d="M1454.189,495.363a.755.755,0,0,0,1.042.238,23.166,23.166,0,0,1,3.935-1.973h0a.757.757,0,0,0-.547-1.412,24.775,24.775,0,0,0-4.192,2.1h0a.756.756,0,0,0-.238,1.043Z" fill="url(#linear-gradient-18)"/>
      </g>
      <g id="Group_2137" data-name="Group 2137">
        <path id="Path_8200" data-name="Path 8200" d="M1478.956,477.082a.755.755,0,0,0,1.02-.32,30.269,30.269,0,0,0,2.305-5.824h0a.757.757,0,0,0-1.458-.408,28.73,28.73,0,0,1-2.189,5.531h0a.757.757,0,0,0,.322,1.02Z" fill="url(#linear-gradient-19)"/>
      </g>
      <g id="Group_2138" data-name="Group 2138">
        <path id="Path_8201" data-name="Path 8201" d="M1482.236,483.776a.756.756,0,0,0,.81.7l4.9-.359a.758.758,0,1,0-.111-1.512l-4.9.36h0a.756.756,0,0,0-.7.81Z" fill="url(#linear-gradient-20)"/>
      </g>
      <g id="Group_2139" data-name="Group 2139">
        <path id="Path_8202" data-name="Path 8202" d="M1487.887,497.281a.756.756,0,0,0-.314-1.022,22.209,22.209,0,0,1-3.918-2.684.757.757,0,1,0-.985,1.15,23.685,23.685,0,0,0,4.186,2.867.745.745,0,0,0,.194.072A.755.755,0,0,0,1487.887,497.281Z" fill="url(#linear-gradient-21)"/>
      </g>
    </g>
    <g id="Group_2148" data-name="Group 2148">
      <path id="Path_8203" data-name="Path 8203" d="M1931.765,529.7a7.954,7.954,0,0,1-.691,11.228c-1.809,1.593-1.717,3.24-2.313,7.588a2.307,2.307,0,0,1-2.416,1.99l-2.66-.15a2.306,2.306,0,0,1-2.175-2.248l-.1-4.364a5.289,5.289,0,0,0-1.343-3.437,7.9,7.9,0,1,1,11.7-10.607Z" fill="url(#linear-gradient-22)"/>
      <g id="Group_2141" data-name="Group 2141">
        <path id="Path_8204" data-name="Path 8204" d="M1923.006,545.26c.374-3.754.617-7.753.65-8.9-3.933-.653-1.547-4.415-.126-2.352a3.48,3.48,0,0,1,.5,2.024,10.252,10.252,0,0,0,3.938-.252,4.883,4.883,0,0,1,.584-2.142c.574-.786,1.732-.778,1.992.171a1.387,1.387,0,0,1-.161,1.083,3.545,3.545,0,0,1-2.077,1.186c-.445,2.952-.815,5.946-1.1,8.91l-.378-.037c.284-2.916.645-5.86,1.08-8.766a10.671,10.671,0,0,1-3.884.227c-.047,1.459-.3,5.349-.65,8.878Zm.209-11.036c-.764-1.1-1.657.111-1.218.864a2.225,2.225,0,0,0,1.656.89,3.075,3.075,0,0,0-.437-1.753Zm6.66-.711a1.531,1.531,0,0,0-1.016.353,4.212,4.212,0,0,0-.489,1.8,2.986,2.986,0,0,0,1.695-.976.857.857,0,0,0-.189-1.18Z" fill="#fff"/>
      </g>
      <path id="Path_8205" data-name="Path 8205" d="M1929.376,544.088c-.22,1.1-.349,2.5-.614,4.431a2.306,2.306,0,0,1-2.415,1.99l-2.661-.15a2.308,2.308,0,0,1-2.175-2.25l-.1-4.364a.491.491,0,0,1-.008-.108Z" fill="#3c8f7c"/>
      <g id="Group_2142" data-name="Group 2142">
        <path id="Path_8206" data-name="Path 8206" d="M1922,522.828a.756.756,0,0,0,.937.515h0a.756.756,0,0,0,.516-.936l-1.2-4.149v0a.757.757,0,0,0-.938-.515h0a.755.755,0,0,0-.515.937l1.2,4.147Z" fill="url(#linear-gradient-23)"/>
      </g>
      <g id="Group_2143" data-name="Group 2143">
        <path id="Path_8207" data-name="Path 8207" d="M1915.585,530.781a.756.756,0,0,0,.949-.493h0a.756.756,0,0,0-.494-.949l-4.327-1.371h0a.755.755,0,0,0-.948.493v0a.756.756,0,0,0,.493.949l4.328,1.371Z" fill="url(#linear-gradient-24)"/>
      </g>
      <g id="Group_2144" data-name="Group 2144">
        <path id="Path_8208" data-name="Path 8208" d="M1908.189,543.343a.757.757,0,0,0,1.042.24,23.252,23.252,0,0,1,3.936-1.974h0a.756.756,0,0,0,.431-.978v0a.757.757,0,0,0-.979-.431,24.862,24.862,0,0,0-4.192,2.1h0a.755.755,0,0,0-.239,1.042Z" fill="url(#linear-gradient-25)"/>
      </g>
      <g id="Group_2145" data-name="Group 2145">
        <path id="Path_8209" data-name="Path 8209" d="M1932.963,525.06a.755.755,0,0,0,1.019-.322,30.269,30.269,0,0,0,2.3-5.824v0a.757.757,0,0,0-.525-.932h0a.757.757,0,0,0-.932.526,28.78,28.78,0,0,1-2.19,5.532h0a.755.755,0,0,0,.322,1.02Z" fill="url(#linear-gradient-26)"/>
      </g>
      <g id="Group_2146" data-name="Group 2146">
        <path id="Path_8210" data-name="Path 8210" d="M1936.236,531.748a.757.757,0,0,0,.81.7l4.9-.359h0a.755.755,0,0,0,.7-.81h0a.756.756,0,0,0-.811-.7l-4.9.36h0a.756.756,0,0,0-.7.811Z" fill="url(#linear-gradient-27)"/>
      </g>
      <g id="Group_2147" data-name="Group 2147">
        <path id="Path_8211" data-name="Path 8211" d="M1941.881,545.26h0a.757.757,0,0,0-.309-1.024,22.058,22.058,0,0,1-3.917-2.684h0a.756.756,0,0,0-.982,1.15,23.642,23.642,0,0,0,4.185,2.867.708.708,0,0,0,.194.072A.755.755,0,0,0,1941.881,545.26Z" fill="url(#linear-gradient-28)"/>
      </g>
    </g>
    <g id="Group_2151" data-name="Group 2151">
      <g id="Group_2149" data-name="Group 2149">
        <path id="Path_8212" data-name="Path 8212" d="M1416.737,730.984h0c-.412.573.211,1.237,1.158,1.237h148.583c11.643,0,21.081-6.328,21.081-14.133h0c0-7.806-9.438-14.133-21.081-14.133H1417.933c-.944,0-1.564.66-1.156,1.23A21.146,21.146,0,0,1,1416.737,730.984Z" fill="url(#linear-gradient-29)"/>
        <path id="Path_8213" data-name="Path 8213" d="M1417.748,729.467h99.878c7.363,0,13.331-4.847,13.331-10.828v-.813c0-5.981-5.969-10.83-13.331-10.83H1417.96A20.846,20.846,0,0,1,1417.748,729.467Z" fill="#d1eaf2"/>
      </g>
      <path id="Path_8214" data-name="Path 8214" d="M1563.05,701.933a21.937,21.937,0,0,1,.556-26.2h-77.883c-6.906,0-12.5,6.038-12.5,13.485h0c0,7.448,5.6,13.485,12.5,13.485h77.883Z" fill="#d1eaf2"/>
      <path id="Path_8215" data-name="Path 8215" d="M1486.9,702.7h78.124a.679.679,0,0,1,.653.7h0a.679.679,0,0,1-.655.692H1441.089c-7.709,0-13.959-6.662-13.959-14.881h0c0-8.219,6.25-14.881,13.959-14.881h123.933a.678.678,0,0,1,.656.69h0v0a.679.679,0,0,1-.656.7H1486.9c-6.987,0-12.649,6.037-12.649,13.485h0C1474.25,696.663,1479.913,702.7,1486.9,702.7Z" fill="#7772d6"/>
      <path id="Path_8216" data-name="Path 8216" d="M1542.564,672.169a21.937,21.937,0,0,1,.555-26.2h-77.883c-6.906,0-12.5,6.038-12.5,13.485h0c0,7.446,5.6,13.484,12.5,13.484h77.883Z" fill="#d1eaf2"/>
      <path id="Path_8217" data-name="Path 8217" d="M1466.418,672.936h78.129a.677.677,0,0,1,.65.7h0a.677.677,0,0,1-.655.693H1420.61c-7.709,0-13.959-6.663-13.959-14.882h0c0-8.219,6.249-14.881,13.959-14.881h123.927a.677.677,0,0,1,.655.691h0v0a.679.679,0,0,1-.655.7h-78.125c-6.985,0-12.648,6.038-12.648,13.485h0C1453.764,666.9,1459.425,672.936,1466.418,672.936Z" fill="#45258f"/>
      <g id="Group_2150" data-name="Group 2150">
        <path id="Path_8218" data-name="Path 8218" d="M1468.727,719.671h11.579v-.111c0-.686-1.453-1.242-3.245-1.242h-8.331Z" fill="#3b77be"/>
        <path id="Path_8219" data-name="Path 8219" d="M1461.608,754.055l6.023-4.293,5.91,4.293-.05-33.373c0-1.3,1.651-2.362,3.687-2.362h-10.695c-2.686,0-4.862,1.394-4.862,3.114Z" fill="#3797db"/>
      </g>
    </g>
    <g id="Group_2153" data-name="Group 2153">
      <path id="Path_8220" data-name="Path 8220" d="M1546.217,643.586c-4.81,1.587-13.8.526-13.8.526-5.714-.132-8.927.187-10.755-.095-.5-.076-1.235-2.613-1.195-3.117a17.593,17.593,0,0,1,.774-4.377,48.856,48.856,0,0,0,11.138.727l7.1,1.659S1551.027,642,1546.217,643.586Z" fill="#45258f"/>
      <path id="Path_8221" data-name="Path 8221" d="M1462.029,519.8c2.116-3.327,11.427-7.657,19.085-3.516,4.633,2.5,8.117,9.481,10.586,17.714,2.284,7.611-5.413,8.476-5.077,12.506s6.911,4.4,4.2,11.415-7.591,14.6-12.928,15.191c-1.771.2-3.8-.991-6.794-1.973s-28.214-3.89-20.076-17.056c3.38-5.465,6.952-6.383,2.759-13.827-1.655-2.939-2.026-7.67.139-9.422,3.226-2.615,6.686-4.069,7.081-8.191A6.414,6.414,0,0,1,1462.029,519.8Z" fill="#5e2e0d"/>
      <path id="Path_8222" data-name="Path 8222" d="M1467.2,599.478c12.957,4.449,26.858,10.667,40.921,10.78l-.8,10.508-51.22-.5s3.649-5.84,4.312-7.49C1460.733,611.972,1466.87,600.278,1467.2,599.478Z" fill="#fae0b2"/>
      <path id="Path_8223" data-name="Path 8223" d="M1494.266,588.927l-5.248,30.709c-14.058.4-17.46-1.8-30.567-5.777a53.437,53.437,0,0,0,2.61-27.34q-.094-.57-.176-1.143c-.916-6.378-6.889-29.178-3.3-31.369s27.542-4.984,31.966-2.968,7.173,21.431,7.173,21.431C1498.439,574.068,1494.266,588.927,1494.266,588.927Z" fill="url(#linear-gradient-30)"/>
      <path id="Path_8224" data-name="Path 8224" d="M1479.027,536.645s-.548,13.119-.682,15.89,3.986,9.942-1.677,8.467-9.136-6.811-8.192-9.432,2.046-13.311,2.046-13.311Z" fill="#efac7f"/>
      <path id="Path_8225" data-name="Path 8225" d="M1470.515,538.262l8.508-1.615-.252,6.129a7.814,7.814,0,0,1-5.8-1.15,10.537,10.537,0,0,1-2.59-2.136C1470.474,538.731,1470.515,538.262,1470.515,538.262Z" fill="#d19369"/>
      <path id="Path_8226" data-name="Path 8226" d="M1483.148,531.417c.129,6.047-4.983,12.435-12,8.3s-5.924-13.571-3.956-16.835a9.719,9.719,0,0,1,5.312-4.146C1481.438,517.349,1483.02,525.371,1483.148,531.417Z" fill="#efac7f"/>
      <path id="Path_8227" data-name="Path 8227" d="M1483.763,525.956c-.91-.047-1.715,1.187-1.792,2.758s.6,2.882,1.512,2.929,1.716-1.188,1.792-2.759S1484.673,526,1483.763,525.956Z" fill="#efac7f"/>
      <path id="Path_8228" data-name="Path 8228" d="M1464.488,529.156c-1.046.375-1.448,1.94-.893,3.493s1.853,2.507,2.9,2.132,1.447-1.938.892-3.492S1465.534,528.782,1464.488,529.156Z" fill="#efac7f"/>
      <path id="Path_8229" data-name="Path 8229" d="M1448.616,598.046c.86,4.78,5.891,4.47,7.71,2.521s10.35-32.459,7.845-38.438a16.537,16.537,0,0,0-6.589-8.122C1450.651,555.516,1447.757,593.266,1448.616,598.046Z" fill="url(#linear-gradient-31)"/>
      <path id="Path_8230" data-name="Path 8230" d="M1511.089,557.07l-8.7,39.571-27.417-4.422,7.044-42.3C1488.534,547.943,1511.089,557.07,1511.089,557.07Z" fill="#d1eaf2"/>
      <path id="Path_8231" data-name="Path 8231" d="M1534.929,551.224l-13,41.5-21.312,4.779s4.572-35.121,9.513-40.429c3.274-3.517,11.429-5.592,16.56-6.6a14.771,14.771,0,0,1,8.24.756Z" fill="#d1eaf2"/>
      <path id="Path_8232" data-name="Path 8232" d="M1464,642.293a33.156,33.156,0,0,0,22.893.6c11.945-4.316,23.889-40.612,23.889-40.612l5.774-22.1c-10.752-2.786-51.363,33.443-54.947,43.4S1464,642.293,1464,642.293Z" fill="#3797db"/>
      <path id="Path_8233" data-name="Path 8233" d="M1467.7,568.93s3.892.7,4.831.02,4.165-2.491,3.661-3.5C1475.627,564.325,1467.7,568.93,1467.7,568.93Z" fill="#efac7f"/>
      <path id="Path_8234" data-name="Path 8234" d="M1520.143,608.328s8.565,26.63,9.526,27.458c.179.155,2.519,1.339,3.262,1.656,3.23,1.376-11.64,2.259-11.691-.958-.034-2.233-10.354-23.678-10.354-23.678Z" fill="#d19369"/>
      <path id="Path_8235" data-name="Path 8235" d="M1519.606,634.537l9.489-.929s-7.72-39.04-11.745-44.062-9.25-2.945-9.754-2.394C1495.986,599.957,1519.606,634.537,1519.606,634.537Z" fill="#3797db"/>
      <path id="Path_8236" data-name="Path 8236" d="M1538.466,555.728a4,4,0,0,0-4.689-3.167L1513.946,557l-6.625.178-25.205-4.236a3.928,3.928,0,0,0-4.473,3.247l-6.378,34.946c-.017.09-.032.179-.043.269a4.033,4.033,0,0,0,3.487,4.513l26.2,2.8c2.367-.03,4.6-.146,4.6-.146s5.972-.824,17.416-2.442a3.952,3.952,0,0,0,3.159-2.66l12.208-35.593A4,4,0,0,0,1538.466,555.728Z" fill="#7772d6"/>
      <path id="Path_8237" data-name="Path 8237" d="M1476.842,574.849c.985-1.485,9.984-.779,10.013-1.757.059-1.941-10.19.037-9.247-.854s9.686-1,9.72-2.143-9.682-.05-10.9-.529c-1.96-.767,10.456-1.192,10.242-2.1-.4-1.683-13.646,1.078-17.878.952s-20.149,25.419-20.275,29.489c-.155,5.125,9.166,5.85,12.527-.295,1.125-2.059,8.974-20.514,8.974-20.514a25.178,25.178,0,0,1,5.515-.687,76.019,76.019,0,0,0,9.434-1.23C1485.714,573.26,1476.432,575.471,1476.842,574.849Z" fill="#efac7f"/>
      <g id="Group_2152" data-name="Group 2152">
        <path id="Path_8238" data-name="Path 8238" d="M1526.372,575.569c.033.915,6.184.007,7.066-.942a1.967,1.967,0,0,0,.276-1.8.886.886,0,0,0-.054-.16.968.968,0,0,0-1.275-.5C1530.474,573,1526.347,574.866,1526.372,575.569Z" fill="#efac7f"/>
        <path id="Path_8239" data-name="Path 8239" d="M1526.178,576.773c.3.791,6.951.132,7.486.113s-.083-2.325-.083-2.325C1532.724,574.094,1525.875,575.983,1526.178,576.773Z" fill="#efac7f"/>
        <path id="Path_8240" data-name="Path 8240" d="M1526.529,577.777c.227.985,6.424,1.372,6.976.78a2.107,2.107,0,0,0,.362-1.616C1533.65,576.185,1526.3,576.791,1526.529,577.777Z" fill="#efac7f"/>
        <path id="Path_8241" data-name="Path 8241" d="M1527.274,579.116c.455.981,5.034,1.442,5.346,1.107a2.007,2.007,0,0,0,.3-1.118C1532.391,578.093,1526.819,578.136,1527.274,579.116Z" fill="#efac7f"/>
      </g>
      <path id="Path_8242" data-name="Path 8242" d="M1523.071,629.405l9.859,13.87s4.189,10.949,1.066,13.544-7.054,2.422-9.459-1.9c-.951-1.709-1.321-5.121-2.757-8.545a135.244,135.244,0,0,1-4.381-13.14Z" fill="#efac7f"/>
      <path id="Path_8243" data-name="Path 8243" d="M1525.412,656.249a6.858,6.858,0,0,0,9.662.842c3.116-2.6-2.143-13.817-2.143-13.817s-.252,4.063-5.293,5.41a8.806,8.806,0,0,1-5.419-1.167c1.083,3.021,1.472,5.891,2.318,7.4A6.845,6.845,0,0,0,1525.412,656.249Z" fill="#45258f"/>
      <path id="Path_8244" data-name="Path 8244" d="M1513.943,557l-8.433,41.567-1.407.1-4.858.291,8.073-41.782Z" fill="#45258f"/>
      <path id="Path_8245" data-name="Path 8245" d="M1492.63,610.781a64.777,64.777,0,0,0,3.882,7.15c8.586,9.847,22.024,21.078,22.024,21.078l8.958-4.578s-32.623-55.733-41.408-51.859c-8.136,3.586-8.3,6.248-28.734,33.255-3.99,5.277-6.268,13.6-4.537,20.324,1.621,6.295,7.452,8.658,13.145,8.658,4.976,0,10.469.725,13.232-4.361C1481.025,637.092,1492.63,610.781,1492.63,610.781Z" fill="#62bdf3"/>
    </g>
    <path id="Path_8246" data-name="Path 8246" d="M1864.122,728.778h0a1.414,1.414,0,0,0,1.321,2.024h169.408c13.275,0,24.035-10.355,24.035-23.127h0c0-12.773-10.76-23.127-24.035-23.127H1865.489a1.425,1.425,0,0,0-.655.137,1.41,1.41,0,0,0-.663,1.88A47.005,47.005,0,0,1,1864.122,728.778Z" fill="#7772d6"/>
    <path id="Path_8247" data-name="Path 8247" d="M1864.709,727.567h99.7c7.042,0,12.751-8.667,12.751-19.359h0c0-10.691-5.709-19.357-12.751-19.357h-99.173A46.983,46.983,0,0,1,1864.709,727.567Z" fill="#d1eaf2"/>
    <g id="Group_2154" data-name="Group 2154">
      <path id="Path_8248" data-name="Path 8248" d="M1921.25,704.885h15.187v-.112c0-.685-1.906-1.24-4.257-1.24h-10.931Z" fill="#3b77be"/>
      <path id="Path_8249" data-name="Path 8249" d="M1911.913,739.233l7.9-4.285,7.752,4.285-.066-33.339c0-1.3,2.165-2.359,4.836-2.359h-14.028c-3.522,0-6.377,1.393-6.377,3.11Z" fill="#3797db"/>
    </g>
    <g id="Group_2157" data-name="Group 2157">
      <g id="Group_2156" data-name="Group 2156">
        <path id="Path_8250" data-name="Path 8250" d="M1853.584,601.455l3.232,45.347-6.409-.215-3.621-48.294,5.342,1.407A1.958,1.958,0,0,1,1853.584,601.455Z" fill="#45258f"/>
        <g id="Group_2155" data-name="Group 2155">
          <path id="Path_8251" data-name="Path 8251" d="M1848.206,646.063l-3.555-45.41a2.143,2.143,0,0,1,1.755-2.357l.1-.005a1.948,1.948,0,0,1,1.986,1.908l3.555,45.409a2.142,2.142,0,0,1-1.754,2.357,1.732,1.732,0,0,1-.367,0A2,2,0,0,1,1848.206,646.063Z" fill="#7772d6"/>
          <path id="Path_8252" data-name="Path 8252" d="M1848.213,645.7c-.012.077-.022.154-.029.232a3.152,3.152,0,0,0,2.591,3.605l45.116,4.032a3.163,3.163,0,0,0,3.2-3.086h0a.567.567,0,0,0,.006-.1Z" fill="#7772d6"/>
        </g>
      </g>
      <path id="Path_8253" data-name="Path 8253" d="M1879.566,721.769c1.559,3.413-4.2,4.748-4.567,5.051-4.1,3.438-5.208,2.251-5.505,4.069s20.273.836,20.273.836l.007-7.435s-9.985-24.155-10.111-26.624c0,.26-9.031,3.132-11.985,1.493C1869.753,703.447,1876.426,714.9,1879.566,721.769Z" fill="#efac7f"/>
      <path id="Path_8254" data-name="Path 8254" d="M1889.763,724.263c-.812,1.152-9.693,3.1-14.745,2.505-2.9,1.295-7.215,3.246-7.806,4.074-.287.4-.1,1.062.715,1.146h22.515C1890.9,731.893,1891.907,727.133,1889.763,724.263Z" fill="#45258f"/>
      <path id="Path_8255" data-name="Path 8255" d="M1881.508,658.412c-15.832-4.871-23.138,2.739-23.748,9.438s13.978,43.321,13.978,43.321l14.03-4.285s-12.212-31.7-10.653-33.386c.881-.952,20.57,7.4,20.266,8.317C1895.381,681.817,1897.341,663.283,1881.508,658.412Z" fill="#2d185d"/>
      <path id="Path_8256" data-name="Path 8256" d="M1856.288,721.834c-.137,3.956-2.347,11.293-2.436,11.759-1,5.251-2.6,5.043-1.68,6.637s16.212-12.2,16.212-12.2a11.81,11.81,0,0,1-4.7-5.754c-.363-.969,1.61-16.715,2.016-19.786a74.447,74.447,0,0,0-11.08.837C1854.729,707.516,1856.547,714.285,1856.288,721.834Z" fill="#efac7f"/>
      <path id="Path_8257" data-name="Path 8257" d="M1854.185,706c2.57.59,8.495.592,11.945.532,1.238-9.374,6.089-30.783,6.258-36.536.126-4.285,34.986,28.459,59.861,15.831,8.014-4.07,9.578-22.282,8.318-31.254-.837-5.957-24.873-1.935-24.873-1.935l.025,7.746-7.562-2.5a139.641,139.641,0,0,0-34.877-6.845c-6.088-.4-11.624-.352-13.758.782C1853.45,655.056,1853.685,687.632,1854.185,706Z" fill="#45258f"/>
      <path id="Path_8258" data-name="Path 8258" d="M1863.668,722.235c.1,1.406-5.545,8.567-9.83,11.312-1.424,2.839-3.523,7.09-3.456,8.1.032.494.6.883,1.279.433l17.186-13.729C1869.138,727.99,1865.477,723.764,1863.668,722.235Z" fill="#45258f"/>
      <path id="Path_8259" data-name="Path 8259" d="M1910.3,601.115c1.841,8.237,27.477,42.559,50.439,17.146,4.8-5.312,6.786-13.267,1.521-19.879-3.762-4.726-9.269-7.128-14.266-10.637-16.081-11.292-9.583-22.491-22.194-27.236a11.828,11.828,0,0,0-12.492,1.986c-4.376,3.868-4.983,9.166-5.56,14.442C1907.375,580.335,1908.93,594.992,1910.3,601.115Z" fill="#282828"/>
      <path id="Path_8260" data-name="Path 8260" d="M1911.011,622.88c5.57,6.529,2.113,31.948,2.113,31.948l27.415-.26c.709-11.816,3.2-49.215-5.8-56.932-2.686-1.824-6.845-1.121-7.569-1.665a1.537,1.537,0,0,1-.365-.642c-1.93-.092-3.611-.126-3.611-.126s-5.026,1.748-6.972,5.208a69.927,69.927,0,0,0-3.807,6.2C1909.628,611.743,1907.132,618.332,1911.011,622.88Z" fill="url(#linear-gradient-32)"/>
      <path id="Path_8261" data-name="Path 8261" d="M1916.082,581.231s1.034,13.241,1.27,16.034-7.2,10.267-1.5,8.57,12.525-7.29,11.478-9.906-2.56-13.379-2.56-13.379Z" fill="#efac7f"/>
      <path id="Path_8262" data-name="Path 8262" d="M1925.229,585.6c-.242-1.792-.462-3.053-.462-3.053l-8.685-1.32s.121,1.6.287,3.795C1918.541,587,1921.708,587.646,1925.229,585.6Z" fill="#d19369"/>
      <path id="Path_8263" data-name="Path 8263" d="M1911.713,576.091c.089,6.116,5.5,12.38,12.466,7.953s5.516-13.929,3.4-17.156a9.871,9.871,0,0,0-5.538-4C1912.936,561.813,1911.623,569.975,1911.713,576.091Z" fill="#efac7f"/>
      <path id="Path_8264" data-name="Path 8264" d="M1910.6,570.879c.858-.349,2.038.569,2.631,2.046s.378,2.95-.481,3.3-2.038-.569-2.632-2.045S1909.747,571.228,1910.6,570.879Z" fill="#efac7f"/>
      <path id="Path_8265" data-name="Path 8265" d="M1929.317,565.164c3.593,2.614,3.679,13.989,3.679,13.989s.054-4.923-3.781-5.8-8.2-10.664-8.2-10.664A15.12,15.12,0,0,1,1929.317,565.164Z" fill="#282828"/>
      <path id="Path_8266" data-name="Path 8266" d="M1930.552,573.13c1.075.347,1.536,1.908,1.032,3.5s-1.784,2.607-2.859,2.26-1.537-1.906-1.033-3.5S1929.477,572.784,1930.552,573.13Z" fill="#efac7f"/>
      <path id="Path_8267" data-name="Path 8267" d="M1875.92,648.173c.013.46,4.221-1.218,6.583-.548,1.044.294,2.949,1.369,3.691,1.655a61.675,61.675,0,0,0,6.964.8s27.166,3.048,29.441,1.661c5.407-3.3,10.3-20.882,12.313-31.729a31.661,31.661,0,0,0-12.245-4.159c-.569,11.343-6.379,24.545-6.379,24.545l-23.017,5.4s-8.421-2.368-9.7-2.772c-1.326-.418-6.764,2.112-7.31,2.825-.985,1.282,6.285-1.54,6.45-.658.042.214-2.407.287-4.053.882A4.545,4.545,0,0,0,1875.92,648.173Z" fill="#efac7f"/>
      <path id="Path_8268" data-name="Path 8268" d="M1921.873,618.883a39.822,39.822,0,0,1,13.848,4.358,105.389,105.389,0,0,0,1.569-18.614c.011-2.713-.6-5.58-2.788-7.367a7.518,7.518,0,0,0-6.723-1.473c-3.715,1.079-5.037,4.448-5.257,7.939C1922.229,608.337,1921.88,618.843,1921.873,618.883Z" fill="url(#linear-gradient-33)"/>
    </g>
    <g id="Group_2161" data-name="Group 2161">
      <path id="Rectangle_540" data-name="Rectangle 540" d="M1936.772,253.806a11.63,11.63,0,0,1,11.63,11.63v4.276a11.63,11.63,0,0,1-11.63,11.629H1706.1a11.628,11.628,0,0,1-11.628-11.628v-4.276h0a11.63,11.63,0,0,1,11.631-11.631Z" fill="#62bdf3"/>
      <g id="Group_2158" data-name="Group 2158">
        <path id="Path_8269" data-name="Path 8269" d="M1754.055,277.691a5.923,5.923,0,0,1-5.923-5.923v-8.492h0a5.924,5.924,0,0,1,5.923-5.924h178.1a5.923,5.923,0,0,1,5.923,5.924v8.492h0a5.923,5.923,0,0,1-5.923,5.923Z" fill="#fbf8f9"/>
      </g>
      <g id="Group_2159" data-name="Group 2159">
        <path id="Path_8270" data-name="Path 8270" d="M1715.756,263.148h0a7.13,7.13,0,1,1,7.129,7.129A7.129,7.129,0,0,1,1715.756,263.148Zm1.638,0h0a5.491,5.491,0,1,0,5.491-5.491A5.491,5.491,0,0,0,1717.394,263.148Z" fill="#fbf8f9"/>
      </g>
      <g id="Group_2160" data-name="Group 2160">
        <path id="Path_8271" data-name="Path 8271" d="M1713.466,277.458c-.024.032-.048.063-.075.094l-.035.038a1.318,1.318,0,1,1-1.924-1.8l7.174-7.962.052-.059a.818.818,0,0,1,1.261,1.038l-6.378,8.557Z" fill="#fbf8f9"/>
      </g>
    </g>
    <g id="Group_2174" data-name="Group 2174">
      <g id="Group_2162" data-name="Group 2162">
        <rect id="Rectangle_541" data-name="Rectangle 541" width="12.973" height="2.234" transform="matrix(0.98, -0.198, 0.198, 0.98, 1781.469, 208.174)" fill="url(#linear-gradient-34)"/>
      </g>
      <g id="Group_2163" data-name="Group 2163">
        <rect id="Rectangle_542" data-name="Rectangle 542" width="2.234" height="13.661" transform="matrix(0.533, -0.846, 0.846, 0.533, 1775.846, 232.821)" fill="url(#linear-gradient-35)"/>
      </g>
      <g id="Group_2164" data-name="Group 2164">
        <rect id="Rectangle_543" data-name="Rectangle 543" width="14.261" height="2.233" transform="matrix(0.19, -0.982, 0.982, 0.19, 1763.9, 192.924)" fill="url(#linear-gradient-36)"/>
      </g>
      <g id="Group_2165" data-name="Group 2165">
        <path id="Path_8272" data-name="Path 8272" d="M1782.534,209.559l-5.365,22.333L1775,231.37l5.075-21.115-15.189-15.162-20.164,5.184-7.39,19.524-2.09-.792,7.8-20.607,22.516-5.79Z" fill="url(#linear-gradient-37)"/>
      </g>
      <g id="Group_2166" data-name="Group 2166">
        <path id="Path_8273" data-name="Path 8273" d="M1736.892,224.976h0a5.4,5.4,0,1,1,4.374-6.259A5.4,5.4,0,0,1,1736.891,224.976Z" fill="url(#linear-gradient-38)"/>
      </g>
      <g id="Group_2167" data-name="Group 2167">
        <path id="Path_8274" data-name="Path 8274" d="M1744.509,203.956h0a5.4,5.4,0,1,1,4.374-6.258A5.4,5.4,0,0,1,1744.508,203.956Z" fill="url(#linear-gradient-39)"/>
      </g>
      <g id="Group_2168" data-name="Group 2168">
        <path id="Path_8275" data-name="Path 8275" d="M1770.582,192.836a5.4,5.4,0,1,1-10.632,1.887v-.005a5.4,5.4,0,0,1,10.633-1.885Z" fill="url(#linear-gradient-40)"/>
      </g>
      <g id="Group_2169" data-name="Group 2169">
        <path id="Path_8276" data-name="Path 8276" d="M1773.683,176.219a5.4,5.4,0,1,1-10.631,1.886h0a5.4,5.4,0,1,1,10.631-1.886Z" fill="url(#linear-gradient-41)"/>
      </g>
      <g id="Group_2170" data-name="Group 2170">
        <path id="Path_8277" data-name="Path 8277" d="M1798.744,210.909a5.4,5.4,0,1,1,4.373-6.259A5.4,5.4,0,0,1,1798.744,210.909Z" fill="url(#linear-gradient-42)"/>
      </g>
      <g id="Group_2171" data-name="Group 2171">
        <path id="Path_8278" data-name="Path 8278" d="M1791.787,245.23A5.4,5.4,0,1,1,1789.9,234.6h0a5.4,5.4,0,0,1,1.884,10.632Z" fill="url(#linear-gradient-43)"/>
      </g>
      <g id="Group_2172" data-name="Group 2172">
        <path id="Path_8279" data-name="Path 8279" d="M1787.521,208.741a5.4,5.4,0,0,1-10.632,1.885h0a5.4,5.4,0,0,1,10.632-1.885Z" fill="url(#linear-gradient-44)"/>
      </g>
      <g id="Group_2173" data-name="Group 2173">
        <path id="Path_8280" data-name="Path 8280" d="M1777.379,237.2a5.4,5.4,0,1,1,4.374-6.259A5.4,5.4,0,0,1,1777.379,237.2Z" fill="url(#linear-gradient-45)"/>
      </g>
    </g>
    <g id="Group_2179" data-name="Group 2179">
      <g id="Group_2176" data-name="Group 2176">
        <path id="Path_8281" data-name="Path 8281" d="M1617.835,746.3a6.026,6.026,0,0,1-7.426-4.181l-25.552-91.4h0a6.027,6.027,0,0,1,4.182-7.427l63.724-17.814a6.027,6.027,0,0,1,7.428,4.181l25.55,91.4h0a6.028,6.028,0,0,1-4.182,7.427L1617.835,746.3Z" fill="#d1eaf2"/>
        <path id="Path_8282" data-name="Path 8282" d="M1593.505,657.429h0a1.73,1.73,0,0,1,1.2-2.131l57.263-16a1.731,1.731,0,0,1,2.13,1.2h0a1.731,1.731,0,0,1-1.2,2.131l-57.262,16.005A1.73,1.73,0,0,1,1593.505,657.429Z" fill="#3797db"/>
        <path id="Path_8283" data-name="Path 8283" d="M1605.653,661.354h0a1.73,1.73,0,0,1,1.2-2.131l47.015-13.143a1.73,1.73,0,0,1,2.13,1.2h0a1.729,1.729,0,0,1-1.2,2.131l-47.015,13.141A1.728,1.728,0,0,1,1605.653,661.354Z" fill="#3797db"/>
        <path id="Path_8284" data-name="Path 8284" d="M1597.3,671.011h0a1.732,1.732,0,0,1,1.2-2.133l57.263-16.005h0a1.729,1.729,0,0,1,2.129,1.2h0a1.729,1.729,0,0,1-1.2,2.13l-57.263,16.005A1.73,1.73,0,0,1,1597.3,671.011Z" fill="#3797db"/>
        <path id="Path_8285" data-name="Path 8285" d="M1612.268,674.146h0a1.73,1.73,0,0,1,1.2-2.131l44.2-12.35h0a1.729,1.729,0,0,1,2.129,1.2h0a1.728,1.728,0,0,1-1.2,2.13l-44.2,12.351A1.729,1.729,0,0,1,1612.268,674.146Z" fill="#3797db"/>
        <g id="Group_2175" data-name="Group 2175">
          <path id="Path_8286" data-name="Path 8286" d="M1644.581,622.019a.775.775,0,0,0-.568.937l2.425,8.675a.775.775,0,0,0,.971.5l1.154-.323a.777.777,0,0,0,.567-.938L1646.7,622.2a.776.776,0,0,0-.97-.5l-1.154.323Z" fill="#7772d6"/>
          <path id="Path_8287" data-name="Path 8287" d="M1639.086,624.335l2.424,8.674a.776.776,0,0,0,.971.505l1.153-.322a.775.775,0,0,0,.566-.937l-2.425-8.676a.776.776,0,0,0-.971-.5l-1.153.321A.776.776,0,0,0,1639.086,624.335Z" fill="#7772d6"/>
          <path id="Path_8288" data-name="Path 8288" d="M1634.717,624.776a.773.773,0,0,0-.565.937l2.424,8.674a.777.777,0,0,0,.972.5l1.153-.323a.774.774,0,0,0,.567-.937l-2.424-8.675a.777.777,0,0,0-.971-.5l-1.153.323Z" fill="#7772d6"/>
          <path id="Path_8289" data-name="Path 8289" d="M1629.787,626.155a.775.775,0,0,0-.565.939l2.424,8.674a.775.775,0,0,0,.971.5l1.153-.322a.776.776,0,0,0,.566-.938l-2.425-8.676a.776.776,0,0,0-.97-.5l-1.154.323Z" fill="#7772d6"/>
          <path id="Path_8290" data-name="Path 8290" d="M1624.29,628.471l2.425,8.676a.775.775,0,0,0,.97.5l1.153-.323a.777.777,0,0,0,.568-.937l-2.425-8.676a.776.776,0,0,0-.972-.5l-1.153.323A.774.774,0,0,0,1624.29,628.471Z" fill="#7772d6"/>
          <path id="Path_8291" data-name="Path 8291" d="M1619.358,629.846l2.424,8.676a.775.775,0,0,0,.971.5l1.153-.323a.777.777,0,0,0,.567-.938l-2.425-8.674a.776.776,0,0,0-.971-.5l-1.153.323A.773.773,0,0,0,1619.358,629.846Z" fill="#7772d6"/>
          <path id="Path_8292" data-name="Path 8292" d="M1614.99,630.29a.775.775,0,0,0-.566.939l2.425,8.674a.775.775,0,0,0,.971.5l1.153-.323h0a.773.773,0,0,0,.565-.937l-2.425-8.676a.774.774,0,0,0-.97-.5l-1.153.323Z" fill="#7772d6"/>
          <path id="Path_8293" data-name="Path 8293" d="M1610.06,631.67a.775.775,0,0,0-.566.939l2.424,8.674a.777.777,0,0,0,.972.5l1.153-.322a.776.776,0,0,0,.566-.938l-2.425-8.676a.775.775,0,0,0-.97-.5l-1.153.323Z" fill="#7772d6"/>
          <path id="Path_8294" data-name="Path 8294" d="M1605.127,633.043a.776.776,0,0,0-.566.939l2.425,8.675a.775.775,0,0,0,.97.5l1.153-.323a.775.775,0,0,0,.568-.937l-2.426-8.676a.776.776,0,0,0-.971-.5l-1.153.322Z" fill="#7772d6"/>
          <path id="Path_8295" data-name="Path 8295" d="M1600.194,634.429a.775.775,0,0,0-.564.94l2.425,8.674a.774.774,0,0,0,.97.5l1.153-.323a.775.775,0,0,0,.566-.937l-2.425-8.676a.774.774,0,0,0-.97-.5l-1.153.321Z" fill="#7772d6"/>
          <path id="Path_8296" data-name="Path 8296" d="M1594.7,636.743l2.424,8.675a.776.776,0,0,0,.971.5l1.153-.323a.776.776,0,0,0,.566-.937l-2.425-8.675a.776.776,0,0,0-.972-.5l-1.153.323A.774.774,0,0,0,1594.7,636.743Z" fill="#7772d6"/>
          <path id="Path_8297" data-name="Path 8297" d="M1589.766,638.123l2.425,8.675a.775.775,0,0,0,.97.5l1.153-.323a.775.775,0,0,0,.567-.937l-2.426-8.675a.774.774,0,0,0-.97-.5l-1.153.323A.775.775,0,0,0,1589.766,638.123Z" fill="#7772d6"/>
        </g>
      </g>
      <g id="Group_2177" data-name="Group 2177">
        <path id="Path_8298" data-name="Path 8298" d="M1750.564,714.975l.45-6.971,0-.061a1.37,1.37,0,0,0-1.343-1.4l-61.023-1.261a1.419,1.419,0,0,0-.424.058L1677,708.72a1.369,1.369,0,0,0-.034,2.613l10.937,3.6a1.322,1.322,0,0,0,.4.068l60.87,1.26A1.371,1.371,0,0,0,1750.564,714.975Z" fill="url(#linear-gradient-46)"/>
        <path id="Path_8299" data-name="Path 8299" d="M1687.838,714.918l-10.367-3.413.126-2.963,10.838-3.256h.152A42.174,42.174,0,0,1,1687.838,714.918Z" fill="#62bdf3"/>
      </g>
      <g id="Group_2178" data-name="Group 2178">
        <path id="Path_8300" data-name="Path 8300" d="M1645.632,713.627c-1.134-5-2.925-11.979-7.995-11.238-3.942.578-6.734,3.3-8.3,8.11a25.959,25.959,0,0,0-1.184,7.259h0a.559.559,0,0,1-.556.563h0a.558.558,0,0,1-.56-.554,26.626,26.626,0,0,1,1.233-7.588c1.681-5.185,4.867-8.267,9.211-8.9,5.83-.851,7.941,6.326,9.249,12.1.89,3.918.019,14.851,5.324,15.322a3.247,3.247,0,0,0,2.753-.871c2.622-2.631,1.518-10.185,1.11-15.637-.213-2.847-.456-6.074.93-8.687,1.806-3.406,8.068-3.133,12.836-.925,4.22,1.955,6.143,4.916,5.02,7.729h0a.559.559,0,1,1-1.039-.414c1.052-2.639-1.61-4.986-4.451-6.3-4.234-1.961-9.946-2.265-11.377.433-1.233,2.327-1,5.383-.8,8.08.431,5.746,1.584,13.484-1.433,16.509a4.2,4.2,0,0,1-3.1,1.22C1645.425,729.838,1646.588,717.8,1645.632,713.627Z" fill="#9ed16f"/>
      </g>
    </g>
    <path id="Path_8301" data-name="Path 8301" d="M1931.625,299.921a.639.639,0,0,1-.681-.594l-.3-4.641-3.995-2.381a.639.639,0,0,1,.09-1.143l4.32-1.723,1.029-4.537a.64.64,0,0,1,1.114-.267l2.975,3.577,4.631-.421a.639.639,0,0,1,.6.977l-2.483,3.933,1.832,4.275a.632.632,0,0,1,.032.409.638.638,0,0,1-.776.461L1935.5,296.7l-3.5,3.064A.641.641,0,0,1,1931.625,299.921Z" fill="url(#linear-gradient-47)"/>
    <path id="Path_8302" data-name="Path 8302" d="M1951.963,239.147a.639.639,0,0,1-.678-.6l-.3-4.641-3.995-2.381a.632.632,0,0,1-.266-.311.639.639,0,0,1,.356-.83l4.321-1.723,1.029-4.537a.64.64,0,0,1,1.116-.267l2.972,3.576,4.633-.42a.639.639,0,0,1,.6.978l-2.483,3.933,1.832,4.274a.638.638,0,0,1-.744.871l-4.508-1.145-3.5,3.063A.631.631,0,0,1,1951.963,239.147Z" fill="#3797db"/>
  </g>
</svg>
